<svg xmlns="http://www.w3.org/2000/svg" width="1600" height="1000" viewBox="0 0 1600 1000" role="img" data-cover-art="skyline">
  <title>Concept illustration: a city skyline of towers above a horizon and a band of water, with the trip’s location on a small chip.</title>
  <rect width="1600" height="1000" fill="hsl(26 18% 88%)"/>
  <rect x="172" y="520" width="52" height="246" rx="3" fill="hsl(26 22% 34%)" fill-opacity="0.48"/><rect x="249" y="589" width="87" height="177" rx="3" fill="hsl(26 22% 34%)" fill-opacity="0.34"/><rect x="363" y="484" width="98" height="282" rx="3" fill="hsl(26 22% 34%)" fill-opacity="0.62"/><rect x="375" y="504" width="10" height="14" rx="2" fill="hsl(26 12% 99%)" fill-opacity="0.5"/><rect x="375" y="538" width="10" height="14" rx="2" fill="hsl(26 12% 99%)" fill-opacity="0.5"/><rect x="375" y="572" width="10" height="14" rx="2" fill="hsl(26 12% 99%)" fill-opacity="0.5"/><rect x="375" y="606" width="10" height="14" rx="2" fill="hsl(26 12% 99%)" fill-opacity="0.5"/><rect x="375" y="640" width="10" height="14" rx="2" fill="hsl(26 12% 99%)" fill-opacity="0.5"/><rect x="375" y="674" width="10" height="14" rx="2" fill="hsl(26 12% 99%)" fill-opacity="0.5"/><rect x="375" y="708" width="10" height="14" rx="2" fill="hsl(26 12% 99%)" fill-opacity="0.5"/><rect x="397" y="504" width="10" height="14" rx="2" fill="hsl(26 12% 99%)" fill-opacity="0.5"/><rect x="397" y="538" width="10" height="14" rx="2" fill="hsl(26 12% 99%)" fill-opacity="0.5"/><rect x="397" y="572" width="10" height="14" rx="2" fill="hsl(26 12% 99%)" fill-opacity="0.5"/><rect x="397" y="606" width="10" height="14" rx="2" fill="hsl(26 12% 99%)" fill-opacity="0.5"/><rect x="397" y="640" width="10" height="14" rx="2" fill="hsl(26 12% 99%)" fill-opacity="0.5"/><rect x="397" y="674" width="10" height="14" rx="2" fill="hsl(26 12% 99%)" fill-opacity="0.5"/><rect x="397" y="708" width="10" height="14" rx="2" fill="hsl(26 12% 99%)" fill-opacity="0.5"/><rect x="419" y="504" width="10" height="14" rx="2" fill="hsl(26 12% 99%)" fill-opacity="0.5"/><rect x="419" y="538" width="10" height="14" rx="2" fill="hsl(26 12% 99%)" fill-opacity="0.5"/><rect x="419" y="572" width="10" height="14" rx="2" fill="hsl(26 12% 99%)" fill-opacity="0.5"/><rect x="419" y="606" width="10" height="14" rx="2" fill="hsl(26 12% 99%)" fill-opacity="0.5"/><rect x="419" y="640" width="10" height="14" rx="2" fill="hsl(26 12% 99%)" fill-opacity="0.5"/><rect x="419" y="674" width="10" height="14" rx="2" fill="hsl(26 12% 99%)" fill-opacity="0.5"/><rect x="419" y="708" width="10" height="14" rx="2" fill="hsl(26 12% 99%)" fill-opacity="0.5"/><rect x="489" y="545" width="88" height="221" rx="3" fill="hsl(26 22% 34%)" fill-opacity="0.74"/><rect x="501" y="565" width="10" height="14" rx="2" fill="hsl(26 12% 99%)" fill-opacity="0.5"/><rect x="501" y="599" width="10" height="14" rx="2" fill="hsl(26 12% 99%)" fill-opacity="0.5"/><rect x="501" y="633" width="10" height="14" rx="2" fill="hsl(26 12% 99%)" fill-opacity="0.5"/><rect x="501" y="667" width="10" height="14" rx="2" fill="hsl(26 12% 99%)" fill-opacity="0.5"/><rect x="501" y="701" width="10" height="14" rx="2" fill="hsl(26 12% 99%)" fill-opacity="0.5"/><rect x="523" y="565" width="10" height="14" rx="2" fill="hsl(26 12% 99%)" fill-opacity="0.5"/><rect x="523" y="599" width="10" height="14" rx="2" fill="hsl(26 12% 99%)" fill-opacity="0.5"/><rect x="523" y="633" width="10" height="14" rx="2" fill="hsl(26 12% 99%)" fill-opacity="0.5"/><rect x="523" y="667" width="10" height="14" rx="2" fill="hsl(26 12% 99%)" fill-opacity="0.5"/><rect x="523" y="701" width="10" height="14" rx="2" fill="hsl(26 12% 99%)" fill-opacity="0.5"/><rect x="545" y="565" width="10" height="14" rx="2" fill="hsl(26 12% 99%)" fill-opacity="0.5"/><rect x="545" y="599" width="10" height="14" rx="2" fill="hsl(26 12% 99%)" fill-opacity="0.5"/><rect x="545" y="633" width="10" height="14" rx="2" fill="hsl(26 12% 99%)" fill-opacity="0.5"/><rect x="545" y="667" width="10" height="14" rx="2" fill="hsl(26 12% 99%)" fill-opacity="0.5"/><rect x="545" y="701" width="10" height="14" rx="2" fill="hsl(26 12% 99%)" fill-opacity="0.5"/><rect x="602" y="306" width="82" height="460" rx="3" fill="hsl(26 22% 34%)" fill-opacity="0.34"/><path d="M643 306v-60" fill="none" stroke="hsl(26 22% 34%)" stroke-width="4" stroke-opacity="0.34" stroke-linecap="round"/><rect x="614" y="326" width="10" height="14" rx="2" fill="hsl(26 12% 99%)" fill-opacity="0.5"/><rect x="614" y="360" width="10" height="14" rx="2" fill="hsl(26 12% 99%)" fill-opacity="0.5"/><rect x="614" y="394" width="10" height="14" rx="2" fill="hsl(26 12% 99%)" fill-opacity="0.5"/><rect x="614" y="428" width="10" height="14" rx="2" fill="hsl(26 12% 99%)" fill-opacity="0.5"/><rect x="614" y="462" width="10" height="14" rx="2" fill="hsl(26 12% 99%)" fill-opacity="0.5"/><rect x="614" y="496" width="10" height="14" rx="2" fill="hsl(26 12% 99%)" fill-opacity="0.5"/><rect x="614" y="530" width="10" height="14" rx="2" fill="hsl(26 12% 99%)" fill-opacity="0.5"/><rect x="614" y="564" width="10" height="14" rx="2" fill="hsl(26 12% 99%)" fill-opacity="0.5"/><rect x="614" y="598" width="10" height="14" rx="2" fill="hsl(26 12% 99%)" fill-opacity="0.5"/><rect x="614" y="632" width="10" height="14" rx="2" fill="hsl(26 12% 99%)" fill-opacity="0.5"/><rect x="614" y="666" width="10" height="14" rx="2" fill="hsl(26 12% 99%)" fill-opacity="0.5"/><rect x="614" y="700" width="10" height="14" rx="2" fill="hsl(26 12% 99%)" fill-opacity="0.5"/><rect x="636" y="326" width="10" height="14" rx="2" fill="hsl(26 12% 99%)" fill-opacity="0.5"/><rect x="636" y="360" width="10" height="14" rx="2" fill="hsl(26 12% 99%)" fill-opacity="0.5"/><rect x="636" y="394" width="10" height="14" rx="2" fill="hsl(26 12% 99%)" fill-opacity="0.5"/><rect x="636" y="428" width="10" height="14" rx="2" fill="hsl(26 12% 99%)" fill-opacity="0.5"/><rect x="636" y="462" width="10" height="14" rx="2" fill="hsl(26 12% 99%)" fill-opacity="0.5"/><rect x="636" y="496" width="10" height="14" rx="2" fill="hsl(26 12% 99%)" fill-opacity="0.5"/><rect x="636" y="530" width="10" height="14" rx="2" fill="hsl(26 12% 99%)" fill-opacity="0.5"/><rect x="636" y="564" width="10" height="14" rx="2" fill="hsl(26 12% 99%)" fill-opacity="0.5"/><rect x="636" y="598" width="10" height="14" rx="2" fill="hsl(26 12% 99%)" fill-opacity="0.5"/><rect x="636" y="632" width="10" height="14" rx="2" fill="hsl(26 12% 99%)" fill-opacity="0.5"/><rect x="636" y="666" width="10" height="14" rx="2" fill="hsl(26 12% 99%)" fill-opacity="0.5"/><rect x="636" y="700" width="10" height="14" rx="2" fill="hsl(26 12% 99%)" fill-opacity="0.5"/><rect x="697" y="538" width="90" height="228" rx="3" fill="hsl(26 22% 34%)" fill-opacity="0.74"/><rect x="709" y="558" width="10" height="14" rx="2" fill="hsl(26 12% 99%)" fill-opacity="0.5"/><rect x="709" y="592" width="10" height="14" rx="2" fill="hsl(26 12% 99%)" fill-opacity="0.5"/><rect x="709" y="626" width="10" height="14" rx="2" fill="hsl(26 12% 99%)" fill-opacity="0.5"/><rect x="709" y="660" width="10" height="14" rx="2" fill="hsl(26 12% 99%)" fill-opacity="0.5"/><rect x="709" y="694" width="10" height="14" rx="2" fill="hsl(26 12% 99%)" fill-opacity="0.5"/><rect x="731" y="558" width="10" height="14" rx="2" fill="hsl(26 12% 99%)" fill-opacity="0.5"/><rect x="731" y="592" width="10" height="14" rx="2" fill="hsl(26 12% 99%)" fill-opacity="0.5"/><rect x="731" y="626" width="10" height="14" rx="2" fill="hsl(26 12% 99%)" fill-opacity="0.5"/><rect x="731" y="660" width="10" height="14" rx="2" fill="hsl(26 12% 99%)" fill-opacity="0.5"/><rect x="731" y="694" width="10" height="14" rx="2" fill="hsl(26 12% 99%)" fill-opacity="0.5"/><rect x="753" y="558" width="10" height="14" rx="2" fill="hsl(26 12% 99%)" fill-opacity="0.5"/><rect x="753" y="592" width="10" height="14" rx="2" fill="hsl(26 12% 99%)" fill-opacity="0.5"/><rect x="753" y="626" width="10" height="14" rx="2" fill="hsl(26 12% 99%)" fill-opacity="0.5"/><rect x="753" y="660" width="10" height="14" rx="2" fill="hsl(26 12% 99%)" fill-opacity="0.5"/><rect x="753" y="694" width="10" height="14" rx="2" fill="hsl(26 12% 99%)" fill-opacity="0.5"/><rect x="808" y="575" width="76" height="191" rx="3" fill="hsl(26 22% 34%)" fill-opacity="0.34"/><rect x="820" y="595" width="10" height="14" rx="2" fill="hsl(26 12% 99%)" fill-opacity="0.5"/><rect x="820" y="629" width="10" height="14" rx="2" fill="hsl(26 12% 99%)" fill-opacity="0.5"/><rect x="820" y="663" width="10" height="14" rx="2" fill="hsl(26 12% 99%)" fill-opacity="0.5"/><rect x="820" y="697" width="10" height="14" rx="2" fill="hsl(26 12% 99%)" fill-opacity="0.5"/><rect x="842" y="595" width="10" height="14" rx="2" fill="hsl(26 12% 99%)" fill-opacity="0.5"/><rect x="842" y="629" width="10" height="14" rx="2" fill="hsl(26 12% 99%)" fill-opacity="0.5"/><rect x="842" y="663" width="10" height="14" rx="2" fill="hsl(26 12% 99%)" fill-opacity="0.5"/><rect x="842" y="697" width="10" height="14" rx="2" fill="hsl(26 12% 99%)" fill-opacity="0.5"/><rect x="896" y="512" width="52" height="254" rx="3" fill="hsl(26 22% 34%)" fill-opacity="0.62"/><rect x="975" y="477" width="99" height="289" rx="3" fill="hsl(26 22% 34%)" fill-opacity="0.62"/><rect x="987" y="497" width="10" height="14" rx="2" fill="hsl(26 12% 99%)" fill-opacity="0.5"/><rect x="987" y="531" width="10" height="14" rx="2" fill="hsl(26 12% 99%)" fill-opacity="0.5"/><rect x="987" y="565" width="10" height="14" rx="2" fill="hsl(26 12% 99%)" fill-opacity="0.5"/><rect x="987" y="599" width="10" height="14" rx="2" fill="hsl(26 12% 99%)" fill-opacity="0.5"/><rect x="987" y="633" width="10" height="14" rx="2" fill="hsl(26 12% 99%)" fill-opacity="0.5"/><rect x="987" y="667" width="10" height="14" rx="2" fill="hsl(26 12% 99%)" fill-opacity="0.5"/><rect x="987" y="701" width="10" height="14" rx="2" fill="hsl(26 12% 99%)" fill-opacity="0.5"/><rect x="1009" y="497" width="10" height="14" rx="2" fill="hsl(26 12% 99%)" fill-opacity="0.5"/><rect x="1009" y="531" width="10" height="14" rx="2" fill="hsl(26 12% 99%)" fill-opacity="0.5"/><rect x="1009" y="565" width="10" height="14" rx="2" fill="hsl(26 12% 99%)" fill-opacity="0.5"/><rect x="1009" y="599" width="10" height="14" rx="2" fill="hsl(26 12% 99%)" fill-opacity="0.5"/><rect x="1009" y="633" width="10" height="14" rx="2" fill="hsl(26 12% 99%)" fill-opacity="0.5"/><rect x="1009" y="667" width="10" height="14" rx="2" fill="hsl(26 12% 99%)" fill-opacity="0.5"/><rect x="1009" y="701" width="10" height="14" rx="2" fill="hsl(26 12% 99%)" fill-opacity="0.5"/><rect x="1031" y="497" width="10" height="14" rx="2" fill="hsl(26 12% 99%)" fill-opacity="0.5"/><rect x="1031" y="531" width="10" height="14" rx="2" fill="hsl(26 12% 99%)" fill-opacity="0.5"/><rect x="1031" y="565" width="10" height="14" rx="2" fill="hsl(26 12% 99%)" fill-opacity="0.5"/><rect x="1031" y="599" width="10" height="14" rx="2" fill="hsl(26 12% 99%)" fill-opacity="0.5"/><rect x="1031" y="633" width="10" height="14" rx="2" fill="hsl(26 12% 99%)" fill-opacity="0.5"/><rect x="1031" y="667" width="10" height="14" rx="2" fill="hsl(26 12% 99%)" fill-opacity="0.5"/><rect x="1031" y="701" width="10" height="14" rx="2" fill="hsl(26 12% 99%)" fill-opacity="0.5"/><rect x="1104" y="374" width="86" height="392" rx="3" fill="hsl(26 22% 34%)" fill-opacity="0.62"/><path d="M1147 374v-52" fill="none" stroke="hsl(26 22% 34%)" stroke-width="4" stroke-opacity="0.62" stroke-linecap="round"/><rect x="1116" y="394" width="10" height="14" rx="2" fill="hsl(26 12% 99%)" fill-opacity="0.5"/><rect x="1116" y="428" width="10" height="14" rx="2" fill="hsl(26 12% 99%)" fill-opacity="0.5"/><rect x="1116" y="462" width="10" height="14" rx="2" fill="hsl(26 12% 99%)" fill-opacity="0.5"/><rect x="1116" y="496" width="10" height="14" rx="2" fill="hsl(26 12% 99%)" fill-opacity="0.5"/><rect x="1116" y="530" width="10" height="14" rx="2" fill="hsl(26 12% 99%)" fill-opacity="0.5"/><rect x="1116" y="564" width="10" height="14" rx="2" fill="hsl(26 12% 99%)" fill-opacity="0.5"/><rect x="1116" y="598" width="10" height="14" rx="2" fill="hsl(26 12% 99%)" fill-opacity="0.5"/><rect x="1116" y="632" width="10" height="14" rx="2" fill="hsl(26 12% 99%)" fill-opacity="0.5"/><rect x="1116" y="666" width="10" height="14" rx="2" fill="hsl(26 12% 99%)" fill-opacity="0.5"/><rect x="1116" y="700" width="10" height="14" rx="2" fill="hsl(26 12% 99%)" fill-opacity="0.5"/><rect x="1138" y="394" width="10" height="14" rx="2" fill="hsl(26 12% 99%)" fill-opacity="0.5"/><rect x="1138" y="428" width="10" height="14" rx="2" fill="hsl(26 12% 99%)" fill-opacity="0.5"/><rect x="1138" y="462" width="10" height="14" rx="2" fill="hsl(26 12% 99%)" fill-opacity="0.5"/><rect x="1138" y="496" width="10" height="14" rx="2" fill="hsl(26 12% 99%)" fill-opacity="0.5"/><rect x="1138" y="530" width="10" height="14" rx="2" fill="hsl(26 12% 99%)" fill-opacity="0.5"/><rect x="1138" y="564" width="10" height="14" rx="2" fill="hsl(26 12% 99%)" fill-opacity="0.5"/><rect x="1138" y="598" width="10" height="14" rx="2" fill="hsl(26 12% 99%)" fill-opacity="0.5"/><rect x="1138" y="632" width="10" height="14" rx="2" fill="hsl(26 12% 99%)" fill-opacity="0.5"/><rect x="1138" y="666" width="10" height="14" rx="2" fill="hsl(26 12% 99%)" fill-opacity="0.5"/><rect x="1138" y="700" width="10" height="14" rx="2" fill="hsl(26 12% 99%)" fill-opacity="0.5"/><rect x="1160" y="394" width="10" height="14" rx="2" fill="hsl(26 12% 99%)" fill-opacity="0.5"/><rect x="1160" y="428" width="10" height="14" rx="2" fill="hsl(26 12% 99%)" fill-opacity="0.5"/><rect x="1160" y="462" width="10" height="14" rx="2" fill="hsl(26 12% 99%)" fill-opacity="0.5"/><rect x="1160" y="496" width="10" height="14" rx="2" fill="hsl(26 12% 99%)" fill-opacity="0.5"/><rect x="1160" y="530" width="10" height="14" rx="2" fill="hsl(26 12% 99%)" fill-opacity="0.5"/><rect x="1160" y="564" width="10" height="14" rx="2" fill="hsl(26 12% 99%)" fill-opacity="0.5"/><rect x="1160" y="598" width="10" height="14" rx="2" fill="hsl(26 12% 99%)" fill-opacity="0.5"/><rect x="1160" y="632" width="10" height="14" rx="2" fill="hsl(26 12% 99%)" fill-opacity="0.5"/><rect x="1160" y="666" width="10" height="14" rx="2" fill="hsl(26 12% 99%)" fill-opacity="0.5"/><rect x="1160" y="700" width="10" height="14" rx="2" fill="hsl(26 12% 99%)" fill-opacity="0.5"/><rect x="1207" y="561" width="67" height="205" rx="3" fill="hsl(26 22% 34%)" fill-opacity="0.34"/><rect x="1219" y="581" width="10" height="14" rx="2" fill="hsl(26 12% 99%)" fill-opacity="0.5"/><rect x="1219" y="615" width="10" height="14" rx="2" fill="hsl(26 12% 99%)" fill-opacity="0.5"/><rect x="1219" y="649" width="10" height="14" rx="2" fill="hsl(26 12% 99%)" fill-opacity="0.5"/><rect x="1219" y="683" width="10" height="14" rx="2" fill="hsl(26 12% 99%)" fill-opacity="0.5"/><rect x="1219" y="717" width="10" height="14" rx="2" fill="hsl(26 12% 99%)" fill-opacity="0.5"/><rect x="1241" y="581" width="10" height="14" rx="2" fill="hsl(26 12% 99%)" fill-opacity="0.5"/><rect x="1241" y="615" width="10" height="14" rx="2" fill="hsl(26 12% 99%)" fill-opacity="0.5"/><rect x="1241" y="649" width="10" height="14" rx="2" fill="hsl(26 12% 99%)" fill-opacity="0.5"/><rect x="1241" y="683" width="10" height="14" rx="2" fill="hsl(26 12% 99%)" fill-opacity="0.5"/><rect x="1241" y="717" width="10" height="14" rx="2" fill="hsl(26 12% 99%)" fill-opacity="0.5"/><rect x="1297" y="521" width="46" height="245" rx="3" fill="hsl(26 22% 34%)" fill-opacity="0.48"/><rect x="1362" y="634" width="58" height="132" rx="3" fill="hsl(26 22% 34%)" fill-opacity="0.34"/><rect x="1437" y="588" width="93" height="178" rx="3" fill="hsl(26 22% 34%)" fill-opacity="0.74"/><rect x="0" y="766" width="1600" height="234" rx="0" fill="hsl(26 22% 34%)" fill-opacity="0.12"/><path d="M0 766h1600" stroke="hsl(26 22% 34%)" stroke-opacity="0.32" stroke-width="3"/><rect x="184" y="788" width="28" height="6" rx="3" fill="hsl(26 22% 34%)" fill-opacity="0.2"/><rect x="178" y="817" width="41" height="6" rx="3" fill="hsl(26 22% 34%)" fill-opacity="0.15000000000000002"/><rect x="274" y="788" width="39" height="6" rx="3" fill="hsl(26 22% 34%)" fill-opacity="0.2"/><rect x="260" y="821" width="67" height="6" rx="3" fill="hsl(26 22% 34%)" fill-opacity="0.15000000000000002"/><rect x="264" y="850" width="58" height="6" rx="3" fill="hsl(26 22% 34%)" fill-opacity="0.1"/><rect x="497" y="788" width="73" height="6" rx="3" fill="hsl(26 22% 34%)" fill-opacity="0.2"/><rect x="512" y="828" width="43" height="6" rx="3" fill="hsl(26 22% 34%)" fill-opacity="0.15000000000000002"/><rect x="622" y="788" width="43" height="6" rx="3" fill="hsl(26 22% 34%)" fill-opacity="0.2"/><rect x="621" y="828" width="44" height="6" rx="3" fill="hsl(26 22% 34%)" fill-opacity="0.15000000000000002"/><rect x="620" y="854" width="46" height="6" rx="3" fill="hsl(26 22% 34%)" fill-opacity="0.1"/><rect x="991" y="788" width="69" height="6" rx="3" fill="hsl(26 22% 34%)" fill-opacity="0.2"/><rect x="989" y="832" width="73" height="6" rx="3" fill="hsl(26 22% 34%)" fill-opacity="0.15000000000000002"/><rect x="987" y="860" width="76" height="6" rx="3" fill="hsl(26 22% 34%)" fill-opacity="0.1"/><rect x="1116" y="788" width="62" height="6" rx="3" fill="hsl(26 22% 34%)" fill-opacity="0.2"/><rect x="1112" y="814" width="71" height="6" rx="3" fill="hsl(26 22% 34%)" fill-opacity="0.15000000000000002"/><rect x="1226" y="788" width="31" height="6" rx="3" fill="hsl(26 22% 34%)" fill-opacity="0.2"/><rect x="1214" y="827" width="55" height="6" rx="3" fill="hsl(26 22% 34%)" fill-opacity="0.15000000000000002"/><rect x="1220" y="872" width="42" height="6" rx="3" fill="hsl(26 22% 34%)" fill-opacity="0.1"/><rect x="1306" y="788" width="29" height="6" rx="3" fill="hsl(26 22% 34%)" fill-opacity="0.2"/><rect x="1306" y="830" width="29" height="6" rx="3" fill="hsl(26 22% 34%)" fill-opacity="0.15000000000000002"/><rect x="1311" y="868" width="19" height="6" rx="3" fill="hsl(26 22% 34%)" fill-opacity="0.1"/><rect x="1375" y="788" width="32" height="6" rx="3" fill="hsl(26 22% 34%)" fill-opacity="0.2"/><rect x="1368" y="832" width="46" height="6" rx="3" fill="hsl(26 22% 34%)" fill-opacity="0.15000000000000002"/><rect x="1378" y="858" width="26" height="6" rx="3" fill="hsl(26 22% 34%)" fill-opacity="0.1"/><rect x="96" y="92" width="501" height="54" rx="10" fill="none" stroke="hsl(26 22% 34%)" stroke-opacity="0.3" stroke-width="2"/><path d="M120 124l14-14M124 110h10v10" fill="none" stroke="hsl(26 22% 34%)" stroke-width="3" stroke-opacity="0.5" stroke-linecap="round"/><text x="148" y="128" fill="hsl(26 22% 34%)" fill-opacity="0.62" font-family="ui-monospace, SFMono-Regular, Menlo, monospace" font-size="22" letter-spacing="2.4">SHANGHAI · YIWU · HANGZHOU</text>
  <rect x="28" y="28" width="1544" height="944" fill="none" stroke="hsl(26 22% 58%)" stroke-width="2" rx="18"/>
  <text x="96" y="916" fill="hsl(26 22% 34%)" fill-opacity="0.55" font-family="ui-monospace, SFMono-Regular, Menlo, monospace" font-size="22" letter-spacing="3.5">EDITORIAL CONCEPT</text>
</svg>
