<svg xmlns="http://www.w3.org/2000/svg" width="1600" height="1000" viewBox="0 0 1600 1000" role="img" data-cover-art="film-strip">
  <title>Concept illustration: a tilted strip of film whose frames each hold a different simple scene, beside a title block and a play ring.</title>
  <rect width="1600" height="1000" fill="hsl(350 18% 88%)"/>
  <rect x="96" y="108" width="158" height="12" rx="6.0" fill="hsl(350 22% 34%)" fill-opacity="0.4"/><rect x="96" y="146" width="330" height="38" rx="19.0" fill="hsl(350 22% 34%)" fill-opacity="0.8"/><rect x="96" y="200" width="232" height="38" rx="19.0" fill="hsl(350 22% 34%)" fill-opacity="0.8"/><rect x="96" y="262" width="196" height="15" rx="7.5" fill="hsl(350 22% 34%)" fill-opacity="0.34"/><g transform="rotate(-4 800 470)"><rect x="90" y="300" width="1420" height="380" rx="10" fill="hsl(350 22% 34%)" fill-opacity="0.82"/><rect x="116" y="316" width="26" height="18" rx="5" fill="hsl(350 18% 88%)" fill-opacity="0.9"/><rect x="116" y="646" width="26" height="18" rx="5" fill="hsl(350 18% 88%)" fill-opacity="0.9"/><rect x="190" y="316" width="26" height="18" rx="5" fill="hsl(350 18% 88%)" fill-opacity="0.9"/><rect x="190" y="646" width="26" height="18" rx="5" fill="hsl(350 18% 88%)" fill-opacity="0.9"/><rect x="264" y="316" width="26" height="18" rx="5" fill="hsl(350 18% 88%)" fill-opacity="0.9"/><rect x="264" y="646" width="26" height="18" rx="5" fill="hsl(350 18% 88%)" fill-opacity="0.9"/><rect x="338" y="316" width="26" height="18" rx="5" fill="hsl(350 18% 88%)" fill-opacity="0.9"/><rect x="338" y="646" width="26" height="18" rx="5" fill="hsl(350 18% 88%)" fill-opacity="0.9"/><rect x="412" y="316" width="26" height="18" rx="5" fill="hsl(350 18% 88%)" fill-opacity="0.9"/><rect x="412" y="646" width="26" height="18" rx="5" fill="hsl(350 18% 88%)" fill-opacity="0.9"/><rect x="486" y="316" width="26" height="18" rx="5" fill="hsl(350 18% 88%)" fill-opacity="0.9"/><rect x="486" y="646" width="26" height="18" rx="5" fill="hsl(350 18% 88%)" fill-opacity="0.9"/><rect x="560" y="316" width="26" height="18" rx="5" fill="hsl(350 18% 88%)" fill-opacity="0.9"/><rect x="560" y="646" width="26" height="18" rx="5" fill="hsl(350 18% 88%)" fill-opacity="0.9"/><rect x="634" y="316" width="26" height="18" rx="5" fill="hsl(350 18% 88%)" fill-opacity="0.9"/><rect x="634" y="646" width="26" height="18" rx="5" fill="hsl(350 18% 88%)" fill-opacity="0.9"/><rect x="708" y="316" width="26" height="18" rx="5" fill="hsl(350 18% 88%)" fill-opacity="0.9"/><rect x="708" y="646" width="26" height="18" rx="5" fill="hsl(350 18% 88%)" fill-opacity="0.9"/><rect x="782" y="316" width="26" height="18" rx="5" fill="hsl(350 18% 88%)" fill-opacity="0.9"/><rect x="782" y="646" width="26" height="18" rx="5" fill="hsl(350 18% 88%)" fill-opacity="0.9"/><rect x="856" y="316" width="26" height="18" rx="5" fill="hsl(350 18% 88%)" fill-opacity="0.9"/><rect x="856" y="646" width="26" height="18" rx="5" fill="hsl(350 18% 88%)" fill-opacity="0.9"/><rect x="930" y="316" width="26" height="18" rx="5" fill="hsl(350 18% 88%)" fill-opacity="0.9"/><rect x="930" y="646" width="26" height="18" rx="5" fill="hsl(350 18% 88%)" fill-opacity="0.9"/><rect x="1004" y="316" width="26" height="18" rx="5" fill="hsl(350 18% 88%)" fill-opacity="0.9"/><rect x="1004" y="646" width="26" height="18" rx="5" fill="hsl(350 18% 88%)" fill-opacity="0.9"/><rect x="1078" y="316" width="26" height="18" rx="5" fill="hsl(350 18% 88%)" fill-opacity="0.9"/><rect x="1078" y="646" width="26" height="18" rx="5" fill="hsl(350 18% 88%)" fill-opacity="0.9"/><rect x="1152" y="316" width="26" height="18" rx="5" fill="hsl(350 18% 88%)" fill-opacity="0.9"/><rect x="1152" y="646" width="26" height="18" rx="5" fill="hsl(350 18% 88%)" fill-opacity="0.9"/><rect x="1226" y="316" width="26" height="18" rx="5" fill="hsl(350 18% 88%)" fill-opacity="0.9"/><rect x="1226" y="646" width="26" height="18" rx="5" fill="hsl(350 18% 88%)" fill-opacity="0.9"/><rect x="1300" y="316" width="26" height="18" rx="5" fill="hsl(350 18% 88%)" fill-opacity="0.9"/><rect x="1300" y="646" width="26" height="18" rx="5" fill="hsl(350 18% 88%)" fill-opacity="0.9"/><rect x="1374" y="316" width="26" height="18" rx="5" fill="hsl(350 18% 88%)" fill-opacity="0.9"/><rect x="1374" y="646" width="26" height="18" rx="5" fill="hsl(350 18% 88%)" fill-opacity="0.9"/><rect x="1448" y="316" width="26" height="18" rx="5" fill="hsl(350 18% 88%)" fill-opacity="0.9"/><rect x="1448" y="646" width="26" height="18" rx="5" fill="hsl(350 18% 88%)" fill-opacity="0.9"/><rect x="124" y="356" width="436" height="268" rx="6" fill="hsl(350 14% 95%)"/><rect x="244.07999999999998" y="418" width="179.52" height="120" rx="6" fill="hsl(350 22% 34%)" fill-opacity="0.3"/><polygon points="244 538 424 538 489 610 309 610" fill="hsl(350 12% 99%)" fill-opacity="0.75"/><rect x="582" y="356" width="436" height="268" rx="6" fill="hsl(350 14% 95%)"/><rect x="596" y="518.8" width="408" height="91.2" rx="0" fill="hsl(350 22% 34%)" fill-opacity="0.34"/><circle cx="861.0747278233059" cy="466" r="31.200000000000003" fill="#8e2f45" fill-opacity="0.5"/><rect x="1040" y="356" width="436" height="268" rx="6" fill="hsl(350 14% 95%)"/><circle cx="1200.88" cy="466" r="26.4" fill="hsl(350 22% 34%)" fill-opacity="0.5"/><polygon points="1136 610 1168 509 1234 509 1266 610" fill="hsl(350 22% 34%)" fill-opacity="0.5"/><circle cx="1323.28" cy="480.4" r="21.599999999999998" fill="hsl(350 22% 34%)" fill-opacity="0.36"/><polygon points="1274 610 1299 524 1352 524 1376 610" fill="hsl(350 22% 34%)" fill-opacity="0.36"/></g><circle cx="1444" cy="878" r="40" fill="none" stroke="hsl(350 22% 34%)" stroke-opacity="0.4" stroke-width="3"/><path d="M1432 890l24-24M1438 866h18v18" fill="none" stroke="hsl(350 22% 34%)" stroke-width="4" stroke-opacity="0.5" stroke-linecap="round"/>
  <rect x="28" y="28" width="1544" height="944" fill="none" stroke="hsl(350 22% 58%)" stroke-width="2" rx="18"/>
  <text x="96" y="916" fill="hsl(350 22% 34%)" fill-opacity="0.55" font-family="ui-monospace, SFMono-Regular, Menlo, monospace" font-size="22" letter-spacing="3.5">EDITORIAL CONCEPT</text>
</svg>
