<svg xmlns="http://www.w3.org/2000/svg" width="1600" height="1000" viewBox="0 0 1600 1000" role="img" data-cover-art="split-bill">
  <title>Concept illustration: a bill drawn as one long bar dividing into three unequal shares, beside two tilted handsets — a shared bill with its transactions, and an assistant offering one person their share to settle.</title>
  <rect width="1600" height="1000" fill="hsl(12 18% 88%)"/>
  <rect x="96" y="448" width="440" height="30" rx="15.0" fill="hsl(12 22% 34%)" fill-opacity="0.8"/><rect x="96" y="518" width="196" height="26" rx="13.0" fill="hsl(12 22% 34%)" fill-opacity="0.55"/><rect x="311" y="518" width="136" height="26" rx="13.0" fill="hsl(12 22% 34%)" fill-opacity="0.4"/><rect x="466" y="518" width="70" height="26" rx="13.0" fill="#8e2f45"/><g transform="translate(712 250) rotate(-13)"><rect x="18" y="26" width="300" height="610" rx="50" fill="hsl(12 20% 55%)" fill-opacity="0.16"/><rect x="0" y="0" width="300" height="610" rx="50" fill="hsl(12 14% 95%)" stroke="hsl(12 12% 99%)" stroke-width="8"/><rect x="109" y="34" width="82" height="19" rx="10" fill="hsl(12 22% 34%)" fill-opacity="0.9"/><rect x="30" y="78" width="96" height="22" rx="11.0" fill="hsl(12 22% 34%)" fill-opacity="0.8"/><path d="M257 78v22M246 89h22" stroke="hsl(12 22% 34%)" stroke-opacity="0.35" stroke-width="5" stroke-linecap="round"/><rect x="30" y="118" width="150" height="12" rx="6.0" fill="hsl(12 22% 34%)" fill-opacity="0.28"/><rect x="30" y="152" width="240" height="132" rx="18" fill="hsl(12 20% 90%)"/><rect x="50" y="172" width="96" height="11" rx="5.5" fill="hsl(12 22% 34%)" fill-opacity="0.35"/><rect x="50" y="198" width="160" height="30" rx="15.0" fill="hsl(12 22% 34%)" fill-opacity="0.85"/><rect x="50" y="242" width="112" height="12" rx="6.0" fill="hsl(12 22% 34%)" fill-opacity="0.3"/><circle cx="46" cy="313" r="14" fill="hsl(12 22% 34%)" fill-opacity="0.22"/><rect x="74" y="306" width="130" height="14" rx="7.0" fill="hsl(12 22% 34%)" fill-opacity="0.6"/><rect x="74" y="328" width="88" height="10" rx="5.0" fill="hsl(12 22% 34%)" fill-opacity="0.28"/><path d="M250 308l12 12-12 12" fill="none" stroke="hsl(12 22% 34%)" stroke-opacity="0.4" stroke-width="4" stroke-linecap="round" stroke-linejoin="round"/><path d="M30 352h240" stroke="hsl(12 18% 78%)" stroke-width="2"/><circle cx="46" cy="385" r="14" fill="hsl(12 22% 34%)" fill-opacity="0.22"/><rect x="74" y="378" width="130" height="14" rx="7.0" fill="hsl(12 22% 34%)" fill-opacity="0.6"/><rect x="74" y="400" width="88" height="10" rx="5.0" fill="hsl(12 22% 34%)" fill-opacity="0.28"/><path d="M250 380l12 12-12 12" fill="none" stroke="hsl(12 22% 34%)" stroke-opacity="0.4" stroke-width="4" stroke-linecap="round" stroke-linejoin="round"/><path d="M30 424h240" stroke="hsl(12 18% 78%)" stroke-width="2"/><circle cx="46" cy="457" r="14" fill="hsl(12 22% 34%)" fill-opacity="0.22"/><rect x="74" y="450" width="130" height="14" rx="7.0" fill="hsl(12 22% 34%)" fill-opacity="0.6"/><rect x="74" y="472" width="88" height="10" rx="5.0" fill="hsl(12 22% 34%)" fill-opacity="0.28"/><path d="M250 452l12 12-12 12" fill="none" stroke="hsl(12 22% 34%)" stroke-opacity="0.4" stroke-width="4" stroke-linecap="round" stroke-linejoin="round"/><path d="M30 496h240" stroke="hsl(12 18% 78%)" stroke-width="2"/><circle cx="70" cy="552" r="9" fill="#8e2f45"/><circle cx="128" cy="552" r="9" fill="hsl(12 22% 34%)" fill-opacity="0.3"/><circle cx="186" cy="552" r="9" fill="hsl(12 22% 34%)" fill-opacity="0.3"/><circle cx="244" cy="552" r="9" fill="hsl(12 22% 34%)" fill-opacity="0.3"/></g><g transform="translate(1120 150) rotate(12)"><rect x="18" y="26" width="300" height="610" rx="50" fill="hsl(12 20% 55%)" fill-opacity="0.16"/><rect x="0" y="0" width="300" height="610" rx="50" fill="hsl(12 14% 95%)" stroke="hsl(12 12% 99%)" stroke-width="8"/><rect x="109" y="34" width="82" height="19" rx="10" fill="hsl(12 22% 34%)" fill-opacity="0.9"/><path d="M46 80l-12 9 12 9" fill="none" stroke="hsl(12 22% 34%)" stroke-opacity="0.5" stroke-width="5" stroke-linecap="round" stroke-linejoin="round"/><rect x="108" y="80" width="84" height="18" rx="9.0" fill="hsl(12 22% 34%)" fill-opacity="0.75"/><circle cx="246" cy="89" r="3.5" fill="hsl(12 22% 34%)" fill-opacity="0.4"/><circle cx="258" cy="89" r="3.5" fill="hsl(12 22% 34%)" fill-opacity="0.4"/><circle cx="270" cy="89" r="3.5" fill="hsl(12 22% 34%)" fill-opacity="0.4"/><circle cx="150" cy="190" r="44" fill="hsl(88 26% 82%)"/><path d="M150 168v44M131 179l38 22M169 179l-38 22" stroke="#647554" stroke-width="7" stroke-linecap="round"/><rect x="82" y="258" width="136" height="16" rx="8.0" fill="hsl(12 22% 34%)" fill-opacity="0.7"/><rect x="34" y="300" width="232" height="92" rx="16" fill="hsl(12 16% 92%)"/><rect x="54" y="322" width="192" height="10" rx="5.0" fill="hsl(12 22% 34%)" fill-opacity="0.3"/><rect x="54" y="348" width="172" height="10" rx="5.0" fill="hsl(12 22% 34%)" fill-opacity="0.3"/><rect x="54" y="374" width="128" height="10" rx="5.0" fill="hsl(12 22% 34%)" fill-opacity="0.3"/><rect x="106" y="424" width="88" height="11" rx="5.5" fill="hsl(12 22% 34%)" fill-opacity="0.35"/><rect x="84" y="450" width="132" height="30" rx="15.0" fill="hsl(12 22% 34%)" fill-opacity="0.9"/><rect x="96" y="494" width="108" height="10" rx="5.0" fill="hsl(12 22% 34%)" fill-opacity="0.28"/><rect x="34" y="528" width="232" height="46" rx="23" fill="#8e2f45"/><rect x="106" y="546" width="88" height="10" rx="5.0" fill="hsl(12 12% 99%)" fill-opacity="0.85"/></g>
  <rect x="28" y="28" width="1544" height="944" fill="none" stroke="hsl(12 22% 58%)" stroke-width="2" rx="18"/>
  <text x="96" y="916" fill="hsl(12 22% 34%)" fill-opacity="0.55" font-family="ui-monospace, SFMono-Regular, Menlo, monospace" font-size="22" letter-spacing="3.5">EDITORIAL CONCEPT</text>
</svg>
