<svg xmlns="http://www.w3.org/2000/svg" width="1600" height="1000" viewBox="0 0 1600 1000" role="img" data-cover-art="blueprint">
  <title>Concept illustration: a technical plan drawing — a dimensioned outline with interior partitions, a radius callout and a corner title block, over a fine grid.</title>
  <rect width="1600" height="1000" fill="hsl(350 18% 88%)"/>
  <defs><pattern id="plan" width="56" height="56" patternUnits="userSpaceOnUse"><path d="M56 0H0v56" fill="none" stroke="hsl(350 22% 34%)" stroke-opacity="0.1" stroke-width="1.5"/></pattern></defs><rect width="1600" height="1000" fill="url(#plan)"/><polygon points="280 258 906 258 906 421 1036 421 1036 646 280 646" fill="hsl(350 22% 34%)" fill-opacity="0.13"/><path d="M280 258h626v163h130v225H280Z" fill="none" stroke="hsl(350 22% 34%)" stroke-width="4" stroke-opacity="0.6" stroke-linecap="round"/><path d="M549 258v388" fill="none" stroke="hsl(350 22% 34%)" stroke-width="2.5" stroke-opacity="0.32" stroke-linecap="round"/><path d="M521 258v388" fill="none" stroke="hsl(350 22% 34%)" stroke-width="2.5" stroke-opacity="0.32" stroke-linecap="round"/><path d="M559 258v388" fill="none" stroke="hsl(350 22% 34%)" stroke-width="2.5" stroke-opacity="0.32" stroke-linecap="round"/><path d="M280 483h756" fill="none" stroke="hsl(350 22% 34%)" stroke-width="2.5" stroke-opacity="0.32" stroke-linecap="round"/><path d="M280 646v116M1036 646v116" fill="none" stroke="hsl(350 22% 34%)" stroke-width="2" stroke-opacity="0.4" stroke-linecap="round"/><path d="M280 742h756" fill="none" stroke="hsl(350 22% 34%)" stroke-width="2.5" stroke-opacity="0.55" stroke-linecap="round"/><path d="M304 730l-24 12 24 12M1012 730l24 12-24 12" fill="none" stroke="hsl(350 22% 34%)" stroke-width="2.5" stroke-opacity="0.55" stroke-linecap="round"/><circle cx="1165" cy="628" r="85" fill="none" stroke="hsl(350 22% 34%)" stroke-opacity="0.5" stroke-width="3"/><path d="M1165 628L1250 628" fill="none" stroke="#8e2f45" stroke-width="3" stroke-opacity="0.8" stroke-linecap="round"/><circle cx="1165" cy="628" r="6" fill="#8e2f45" fill-opacity="0.8"/><rect x="1120" y="830" width="384" height="110" rx="6" fill="hsl(350 14% 95%)" fill-opacity="0.9"/><path d="M1120 830h384v110h-384Z" fill="none" stroke="hsl(350 22% 34%)" stroke-width="3" stroke-opacity="0.5" stroke-linecap="round"/><path d="M1120 876h384M1352 830v110" fill="none" stroke="hsl(350 22% 34%)" stroke-width="2" stroke-opacity="0.35" stroke-linecap="round"/><rect x="1140" y="846" width="150" height="14" rx="7.0" fill="hsl(350 22% 34%)" fill-opacity="0.5"/><rect x="1140" y="896" width="108" height="12" rx="6.0" fill="hsl(350 22% 34%)" fill-opacity="0.3"/><rect x="1372" y="846" width="82" height="14" rx="7.0" fill="hsl(350 22% 34%)" fill-opacity="0.3"/><rect x="1372" y="896" width="62" height="12" rx="6.0" fill="hsl(350 22% 34%)" fill-opacity="0.3"/>
  <rect x="28" y="28" width="1544" height="944" fill="none" stroke="hsl(350 22% 58%)" stroke-width="2" rx="18"/>
  <text x="96" y="916" fill="hsl(350 22% 34%)" fill-opacity="0.55" font-family="ui-monospace, SFMono-Regular, Menlo, monospace" font-size="22" letter-spacing="3.5">EDITORIAL CONCEPT</text>
</svg>
