<svg xmlns="http://www.w3.org/2000/svg" width="1600" height="1000" viewBox="0 0 1600 1000" role="img" data-cover-art="crates">
  <title>Concept illustration: a hand-set stack of labelled crates beside a carrier bag.</title>
  <rect width="1600" height="1000" fill="hsl(20 18% 88%)"/>
  <g transform="translate(484 629) rotate(-0.7 224.5 105.5)"><rect x="12" y="16" width="449" height="211" rx="10" fill="hsl(20 20% 55%)" fill-opacity="0.128"/><rect x="0" y="0" width="449" height="211" rx="10" fill="hsl(20 14% 95%)"/><path d="M6 6h437v199H6Z" fill="none" stroke="hsl(20 22% 34%)" stroke-width="9" stroke-opacity="0.4" stroke-linecap="round"/><path d="M6 106h437" fill="none" stroke="hsl(20 22% 34%)" stroke-width="6" stroke-opacity="0.27999999999999997" stroke-linecap="round"/><polygon points="449 6 493 -26 493 167 449 205" fill="hsl(20 22% 34%)" fill-opacity="0.22000000000000003"/><rect x="260" y="30" width="135" height="72" rx="5" fill="hsl(20 18% 88%)" fill-opacity="0.95"/><rect x="278" y="46" width="85" height="12" rx="6.0" fill="hsl(20 22% 34%)" fill-opacity="0.45"/><rect x="278" y="68" width="54" height="10" rx="5.0" fill="hsl(20 22% 34%)" fill-opacity="0.25"/></g><g transform="translate(442 391) rotate(1.0 186.5 117)"><rect x="12" y="16" width="373" height="234" rx="10" fill="hsl(20 20% 55%)" fill-opacity="0.128"/><rect x="0" y="0" width="373" height="234" rx="10" fill="hsl(20 14% 95%)"/><path d="M6 6h361v222H6Z" fill="none" stroke="hsl(20 22% 34%)" stroke-width="9" stroke-opacity="0.56" stroke-linecap="round"/><path d="M6 117h361" fill="none" stroke="hsl(20 22% 34%)" stroke-width="6" stroke-opacity="0.392" stroke-linecap="round"/><polygon points="373 6 417 -26 417 190 373 228" fill="hsl(20 22% 34%)" fill-opacity="0.30800000000000005"/><rect x="216" y="33" width="112" height="80" rx="5" fill="hsl(20 18% 88%)" fill-opacity="0.95"/><rect x="231" y="51" width="71" height="12" rx="6.0" fill="hsl(20 22% 34%)" fill-opacity="0.45"/><rect x="231" y="75" width="45" height="10" rx="5.0" fill="hsl(20 22% 34%)" fill-opacity="0.25"/></g><g transform="translate(434 156) rotate(0.7 210.5 114)"><rect x="12" y="16" width="421" height="228" rx="10" fill="hsl(20 20% 55%)" fill-opacity="0.128"/><rect x="0" y="0" width="421" height="228" rx="10" fill="hsl(20 14% 95%)"/><path d="M6 6h409v216H6Z" fill="none" stroke="hsl(20 22% 34%)" stroke-width="9" stroke-opacity="0.72" stroke-linecap="round"/><path d="M6 114h409" fill="none" stroke="hsl(20 22% 34%)" stroke-width="6" stroke-opacity="0.504" stroke-linecap="round"/><polygon points="421 6 465 -26 465 184 421 222" fill="hsl(20 22% 34%)" fill-opacity="0.396"/><rect x="244" y="32" width="126" height="78" rx="5" fill="hsl(20 18% 88%)" fill-opacity="0.95"/><rect x="261" y="50" width="80" height="12" rx="6.0" fill="hsl(20 22% 34%)" fill-opacity="0.45"/><rect x="261" y="73" width="51" height="10" rx="5.0" fill="hsl(20 22% 34%)" fill-opacity="0.25"/></g><rect x="1092" y="532" width="314" height="326" rx="16" fill="hsl(20 20% 55%)" fill-opacity="0.16"/><rect x="1080" y="514" width="314" height="326" rx="16" fill="#8e2f45" fill-opacity="0.78"/><path d="M1132 514v-64q0-50 48-50t48 50v64" fill="none" stroke="hsl(20 22% 34%)" stroke-width="13" stroke-opacity="0.45" stroke-linecap="round"/><path d="M300 840h1230" stroke="hsl(20 22% 34%)" stroke-opacity="0.25" stroke-width="4"/>
  <rect x="28" y="28" width="1544" height="944" fill="none" stroke="hsl(20 22% 58%)" stroke-width="2" rx="18"/>
  <text x="96" y="916" fill="hsl(20 22% 34%)" fill-opacity="0.55" font-family="ui-monospace, SFMono-Regular, Menlo, monospace" font-size="22" letter-spacing="3.5">EDITORIAL CONCEPT</text>
</svg>
