<svg xmlns="http://www.w3.org/2000/svg" width="1600" height="1000" viewBox="0 0 1600 1000" role="img" data-cover-art="skyline">
  <title>Concept illustration: a city skyline of towers above a horizon and a band of water, with the trip’s location on a small chip.</title>
  <rect width="1600" height="1000" fill="hsl(26 18% 88%)"/>
  <rect x="121" y="653" width="73" height="185" rx="3" fill="hsl(26 22% 34%)" fill-opacity="0.62"/><rect x="133" y="673" width="10" height="14" rx="2" fill="hsl(26 12% 99%)" fill-opacity="0.5"/><rect x="133" y="707" width="10" height="14" rx="2" fill="hsl(26 12% 99%)" fill-opacity="0.5"/><rect x="133" y="741" width="10" height="14" rx="2" fill="hsl(26 12% 99%)" fill-opacity="0.5"/><rect x="133" y="775" width="10" height="14" rx="2" fill="hsl(26 12% 99%)" fill-opacity="0.5"/><rect x="155" y="673" width="10" height="14" rx="2" fill="hsl(26 12% 99%)" fill-opacity="0.5"/><rect x="155" y="707" width="10" height="14" rx="2" fill="hsl(26 12% 99%)" fill-opacity="0.5"/><rect x="155" y="741" width="10" height="14" rx="2" fill="hsl(26 12% 99%)" fill-opacity="0.5"/><rect x="155" y="775" width="10" height="14" rx="2" fill="hsl(26 12% 99%)" fill-opacity="0.5"/><rect x="206" y="568" width="79" height="270" rx="3" fill="hsl(26 22% 34%)" fill-opacity="0.48"/><rect x="218" y="588" width="10" height="14" rx="2" fill="hsl(26 12% 99%)" fill-opacity="0.5"/><rect x="218" y="622" width="10" height="14" rx="2" fill="hsl(26 12% 99%)" fill-opacity="0.5"/><rect x="218" y="656" width="10" height="14" rx="2" fill="hsl(26 12% 99%)" fill-opacity="0.5"/><rect x="218" y="690" width="10" height="14" rx="2" fill="hsl(26 12% 99%)" fill-opacity="0.5"/><rect x="218" y="724" width="10" height="14" rx="2" fill="hsl(26 12% 99%)" fill-opacity="0.5"/><rect x="218" y="758" width="10" height="14" rx="2" fill="hsl(26 12% 99%)" fill-opacity="0.5"/><rect x="218" y="792" width="10" height="14" rx="2" fill="hsl(26 12% 99%)" fill-opacity="0.5"/><rect x="240" y="588" width="10" height="14" rx="2" fill="hsl(26 12% 99%)" fill-opacity="0.5"/><rect x="240" y="622" width="10" height="14" rx="2" fill="hsl(26 12% 99%)" fill-opacity="0.5"/><rect x="240" y="656" width="10" height="14" rx="2" fill="hsl(26 12% 99%)" fill-opacity="0.5"/><rect x="240" y="690" width="10" height="14" rx="2" fill="hsl(26 12% 99%)" fill-opacity="0.5"/><rect x="240" y="724" width="10" height="14" rx="2" fill="hsl(26 12% 99%)" fill-opacity="0.5"/><rect x="240" y="758" width="10" height="14" rx="2" fill="hsl(26 12% 99%)" fill-opacity="0.5"/><rect x="240" y="792" width="10" height="14" rx="2" fill="hsl(26 12% 99%)" fill-opacity="0.5"/><polygon points="319 420 374 420 392 838 301 838" fill="hsl(26 22% 34%)" fill-opacity="0.74"/><path d="M347 420v-66" fill="none" stroke="hsl(26 22% 34%)" stroke-width="4" stroke-opacity="0.74" stroke-linecap="round"/><rect x="313" y="440" width="10" height="14" rx="2" fill="hsl(26 12% 99%)" fill-opacity="0.5"/><rect x="313" y="474" width="10" height="14" rx="2" fill="hsl(26 12% 99%)" fill-opacity="0.5"/><rect x="313" y="508" width="10" height="14" rx="2" fill="hsl(26 12% 99%)" fill-opacity="0.5"/><rect x="313" y="542" width="10" height="14" rx="2" fill="hsl(26 12% 99%)" fill-opacity="0.5"/><rect x="313" y="576" width="10" height="14" rx="2" fill="hsl(26 12% 99%)" fill-opacity="0.5"/><rect x="313" y="610" width="10" height="14" rx="2" fill="hsl(26 12% 99%)" fill-opacity="0.5"/><rect x="313" y="644" width="10" height="14" rx="2" fill="hsl(26 12% 99%)" fill-opacity="0.5"/><rect x="313" y="678" width="10" height="14" rx="2" fill="hsl(26 12% 99%)" fill-opacity="0.5"/><rect x="313" y="712" width="10" height="14" rx="2" fill="hsl(26 12% 99%)" fill-opacity="0.5"/><rect x="313" y="746" width="10" height="14" rx="2" fill="hsl(26 12% 99%)" fill-opacity="0.5"/><rect x="313" y="780" width="10" height="14" rx="2" fill="hsl(26 12% 99%)" fill-opacity="0.5"/><rect x="335" y="440" width="10" height="14" rx="2" fill="hsl(26 12% 99%)" fill-opacity="0.5"/><rect x="335" y="474" width="10" height="14" rx="2" fill="hsl(26 12% 99%)" fill-opacity="0.5"/><rect x="335" y="508" width="10" height="14" rx="2" fill="hsl(26 12% 99%)" fill-opacity="0.5"/><rect x="335" y="542" width="10" height="14" rx="2" fill="hsl(26 12% 99%)" fill-opacity="0.5"/><rect x="335" y="576" width="10" height="14" rx="2" fill="hsl(26 12% 99%)" fill-opacity="0.5"/><rect x="335" y="610" width="10" height="14" rx="2" fill="hsl(26 12% 99%)" fill-opacity="0.5"/><rect x="335" y="644" width="10" height="14" rx="2" fill="hsl(26 12% 99%)" fill-opacity="0.5"/><rect x="335" y="678" width="10" height="14" rx="2" fill="hsl(26 12% 99%)" fill-opacity="0.5"/><rect x="335" y="712" width="10" height="14" rx="2" fill="hsl(26 12% 99%)" fill-opacity="0.5"/><rect x="335" y="746" width="10" height="14" rx="2" fill="hsl(26 12% 99%)" fill-opacity="0.5"/><rect x="335" y="780" width="10" height="14" rx="2" fill="hsl(26 12% 99%)" fill-opacity="0.5"/><rect x="357" y="440" width="10" height="14" rx="2" fill="hsl(26 12% 99%)" fill-opacity="0.5"/><rect x="357" y="474" width="10" height="14" rx="2" fill="hsl(26 12% 99%)" fill-opacity="0.5"/><rect x="357" y="508" width="10" height="14" rx="2" fill="hsl(26 12% 99%)" fill-opacity="0.5"/><rect x="357" y="542" width="10" height="14" rx="2" fill="hsl(26 12% 99%)" fill-opacity="0.5"/><rect x="357" y="576" width="10" height="14" rx="2" fill="hsl(26 12% 99%)" fill-opacity="0.5"/><rect x="357" y="610" width="10" height="14" rx="2" fill="hsl(26 12% 99%)" fill-opacity="0.5"/><rect x="357" y="644" width="10" height="14" rx="2" fill="hsl(26 12% 99%)" fill-opacity="0.5"/><rect x="357" y="678" width="10" height="14" rx="2" fill="hsl(26 12% 99%)" fill-opacity="0.5"/><rect x="357" y="712" width="10" height="14" rx="2" fill="hsl(26 12% 99%)" fill-opacity="0.5"/><rect x="357" y="746" width="10" height="14" rx="2" fill="hsl(26 12% 99%)" fill-opacity="0.5"/><rect x="357" y="780" width="10" height="14" rx="2" fill="hsl(26 12% 99%)" fill-opacity="0.5"/><rect x="411" y="585" width="99" height="253" rx="3" fill="hsl(26 22% 34%)" fill-opacity="0.62"/><rect x="423" y="605" width="10" height="14" rx="2" fill="hsl(26 12% 99%)" fill-opacity="0.5"/><rect x="423" y="639" width="10" height="14" rx="2" fill="hsl(26 12% 99%)" fill-opacity="0.5"/><rect x="423" y="673" width="10" height="14" rx="2" fill="hsl(26 12% 99%)" fill-opacity="0.5"/><rect x="423" y="707" width="10" height="14" rx="2" fill="hsl(26 12% 99%)" fill-opacity="0.5"/><rect x="423" y="741" width="10" height="14" rx="2" fill="hsl(26 12% 99%)" fill-opacity="0.5"/><rect x="423" y="775" width="10" height="14" rx="2" fill="hsl(26 12% 99%)" fill-opacity="0.5"/><rect x="445" y="605" width="10" height="14" rx="2" fill="hsl(26 12% 99%)" fill-opacity="0.5"/><rect x="445" y="639" width="10" height="14" rx="2" fill="hsl(26 12% 99%)" fill-opacity="0.5"/><rect x="445" y="673" width="10" height="14" rx="2" fill="hsl(26 12% 99%)" fill-opacity="0.5"/><rect x="445" y="707" width="10" height="14" rx="2" fill="hsl(26 12% 99%)" fill-opacity="0.5"/><rect x="445" y="741" width="10" height="14" rx="2" fill="hsl(26 12% 99%)" fill-opacity="0.5"/><rect x="445" y="775" width="10" height="14" rx="2" fill="hsl(26 12% 99%)" fill-opacity="0.5"/><rect x="467" y="605" width="10" height="14" rx="2" fill="hsl(26 12% 99%)" fill-opacity="0.5"/><rect x="467" y="639" width="10" height="14" rx="2" fill="hsl(26 12% 99%)" fill-opacity="0.5"/><rect x="467" y="673" width="10" height="14" rx="2" fill="hsl(26 12% 99%)" fill-opacity="0.5"/><rect x="467" y="707" width="10" height="14" rx="2" fill="hsl(26 12% 99%)" fill-opacity="0.5"/><rect x="467" y="741" width="10" height="14" rx="2" fill="hsl(26 12% 99%)" fill-opacity="0.5"/><rect x="467" y="775" width="10" height="14" rx="2" fill="hsl(26 12% 99%)" fill-opacity="0.5"/><rect x="537" y="669" width="94" height="169" rx="3" fill="hsl(26 22% 34%)" fill-opacity="0.48"/><rect x="644" y="625" width="92" height="213" rx="3" fill="hsl(26 22% 34%)" fill-opacity="0.62"/><rect x="656" y="645" width="10" height="14" rx="2" fill="hsl(26 12% 99%)" fill-opacity="0.5"/><rect x="656" y="679" width="10" height="14" rx="2" fill="hsl(26 12% 99%)" fill-opacity="0.5"/><rect x="656" y="713" width="10" height="14" rx="2" fill="hsl(26 12% 99%)" fill-opacity="0.5"/><rect x="656" y="747" width="10" height="14" rx="2" fill="hsl(26 12% 99%)" fill-opacity="0.5"/><rect x="656" y="781" width="10" height="14" rx="2" fill="hsl(26 12% 99%)" fill-opacity="0.5"/><rect x="678" y="645" width="10" height="14" rx="2" fill="hsl(26 12% 99%)" fill-opacity="0.5"/><rect x="678" y="679" width="10" height="14" rx="2" fill="hsl(26 12% 99%)" fill-opacity="0.5"/><rect x="678" y="713" width="10" height="14" rx="2" fill="hsl(26 12% 99%)" fill-opacity="0.5"/><rect x="678" y="747" width="10" height="14" rx="2" fill="hsl(26 12% 99%)" fill-opacity="0.5"/><rect x="678" y="781" width="10" height="14" rx="2" fill="hsl(26 12% 99%)" fill-opacity="0.5"/><rect x="700" y="645" width="10" height="14" rx="2" fill="hsl(26 12% 99%)" fill-opacity="0.5"/><rect x="700" y="679" width="10" height="14" rx="2" fill="hsl(26 12% 99%)" fill-opacity="0.5"/><rect x="700" y="713" width="10" height="14" rx="2" fill="hsl(26 12% 99%)" fill-opacity="0.5"/><rect x="700" y="747" width="10" height="14" rx="2" fill="hsl(26 12% 99%)" fill-opacity="0.5"/><rect x="700" y="781" width="10" height="14" rx="2" fill="hsl(26 12% 99%)" fill-opacity="0.5"/><rect x="750" y="557" width="75" height="281" rx="3" fill="hsl(26 22% 34%)" fill-opacity="0.62"/><rect x="762" y="577" width="10" height="14" rx="2" fill="hsl(26 12% 99%)" fill-opacity="0.5"/><rect x="762" y="611" width="10" height="14" rx="2" fill="hsl(26 12% 99%)" fill-opacity="0.5"/><rect x="762" y="645" width="10" height="14" rx="2" fill="hsl(26 12% 99%)" fill-opacity="0.5"/><rect x="762" y="679" width="10" height="14" rx="2" fill="hsl(26 12% 99%)" fill-opacity="0.5"/><rect x="762" y="713" width="10" height="14" rx="2" fill="hsl(26 12% 99%)" fill-opacity="0.5"/><rect x="762" y="747" width="10" height="14" rx="2" fill="hsl(26 12% 99%)" fill-opacity="0.5"/><rect x="762" y="781" width="10" height="14" rx="2" fill="hsl(26 12% 99%)" fill-opacity="0.5"/><rect x="784" y="577" width="10" height="14" rx="2" fill="hsl(26 12% 99%)" fill-opacity="0.5"/><rect x="784" y="611" width="10" height="14" rx="2" fill="hsl(26 12% 99%)" fill-opacity="0.5"/><rect x="784" y="645" width="10" height="14" rx="2" fill="hsl(26 12% 99%)" fill-opacity="0.5"/><rect x="784" y="679" width="10" height="14" rx="2" fill="hsl(26 12% 99%)" fill-opacity="0.5"/><rect x="784" y="713" width="10" height="14" rx="2" fill="hsl(26 12% 99%)" fill-opacity="0.5"/><rect x="784" y="747" width="10" height="14" rx="2" fill="hsl(26 12% 99%)" fill-opacity="0.5"/><rect x="784" y="781" width="10" height="14" rx="2" fill="hsl(26 12% 99%)" fill-opacity="0.5"/><rect x="839" y="585" width="91" height="253" rx="3" fill="hsl(26 22% 34%)" fill-opacity="0.74"/><rect x="851" y="605" width="10" height="14" rx="2" fill="hsl(26 12% 99%)" fill-opacity="0.5"/><rect x="851" y="639" width="10" height="14" rx="2" fill="hsl(26 12% 99%)" fill-opacity="0.5"/><rect x="851" y="673" width="10" height="14" rx="2" fill="hsl(26 12% 99%)" fill-opacity="0.5"/><rect x="851" y="707" width="10" height="14" rx="2" fill="hsl(26 12% 99%)" fill-opacity="0.5"/><rect x="851" y="741" width="10" height="14" rx="2" fill="hsl(26 12% 99%)" fill-opacity="0.5"/><rect x="851" y="775" width="10" height="14" rx="2" fill="hsl(26 12% 99%)" fill-opacity="0.5"/><rect x="873" y="605" width="10" height="14" rx="2" fill="hsl(26 12% 99%)" fill-opacity="0.5"/><rect x="873" y="639" width="10" height="14" rx="2" fill="hsl(26 12% 99%)" fill-opacity="0.5"/><rect x="873" y="673" width="10" height="14" rx="2" fill="hsl(26 12% 99%)" fill-opacity="0.5"/><rect x="873" y="707" width="10" height="14" rx="2" fill="hsl(26 12% 99%)" fill-opacity="0.5"/><rect x="873" y="741" width="10" height="14" rx="2" fill="hsl(26 12% 99%)" fill-opacity="0.5"/><rect x="873" y="775" width="10" height="14" rx="2" fill="hsl(26 12% 99%)" fill-opacity="0.5"/><rect x="895" y="605" width="10" height="14" rx="2" fill="hsl(26 12% 99%)" fill-opacity="0.5"/><rect x="895" y="639" width="10" height="14" rx="2" fill="hsl(26 12% 99%)" fill-opacity="0.5"/><rect x="895" y="673" width="10" height="14" rx="2" fill="hsl(26 12% 99%)" fill-opacity="0.5"/><rect x="895" y="707" width="10" height="14" rx="2" fill="hsl(26 12% 99%)" fill-opacity="0.5"/><rect x="895" y="741" width="10" height="14" rx="2" fill="hsl(26 12% 99%)" fill-opacity="0.5"/><rect x="895" y="775" width="10" height="14" rx="2" fill="hsl(26 12% 99%)" fill-opacity="0.5"/><rect x="960" y="660" width="85" height="178" rx="3" fill="hsl(26 22% 34%)" fill-opacity="0.48"/><polygon points="1088 453 1146 453 1165 838 1069 838" fill="hsl(26 22% 34%)" fill-opacity="0.48"/><path d="M1117 453v-50" fill="none" stroke="hsl(26 22% 34%)" stroke-width="4" stroke-opacity="0.48" stroke-linecap="round"/><rect x="1081" y="473" width="10" height="14" rx="2" fill="hsl(26 12% 99%)" fill-opacity="0.5"/><rect x="1081" y="507" width="10" height="14" rx="2" fill="hsl(26 12% 99%)" fill-opacity="0.5"/><rect x="1081" y="541" width="10" height="14" rx="2" fill="hsl(26 12% 99%)" fill-opacity="0.5"/><rect x="1081" y="575" width="10" height="14" rx="2" fill="hsl(26 12% 99%)" fill-opacity="0.5"/><rect x="1081" y="609" width="10" height="14" rx="2" fill="hsl(26 12% 99%)" fill-opacity="0.5"/><rect x="1081" y="643" width="10" height="14" rx="2" fill="hsl(26 12% 99%)" fill-opacity="0.5"/><rect x="1081" y="677" width="10" height="14" rx="2" fill="hsl(26 12% 99%)" fill-opacity="0.5"/><rect x="1081" y="711" width="10" height="14" rx="2" fill="hsl(26 12% 99%)" fill-opacity="0.5"/><rect x="1081" y="745" width="10" height="14" rx="2" fill="hsl(26 12% 99%)" fill-opacity="0.5"/><rect x="1081" y="779" width="10" height="14" rx="2" fill="hsl(26 12% 99%)" fill-opacity="0.5"/><rect x="1103" y="473" width="10" height="14" rx="2" fill="hsl(26 12% 99%)" fill-opacity="0.5"/><rect x="1103" y="507" width="10" height="14" rx="2" fill="hsl(26 12% 99%)" fill-opacity="0.5"/><rect x="1103" y="541" width="10" height="14" rx="2" fill="hsl(26 12% 99%)" fill-opacity="0.5"/><rect x="1103" y="575" width="10" height="14" rx="2" fill="hsl(26 12% 99%)" fill-opacity="0.5"/><rect x="1103" y="609" width="10" height="14" rx="2" fill="hsl(26 12% 99%)" fill-opacity="0.5"/><rect x="1103" y="643" width="10" height="14" rx="2" fill="hsl(26 12% 99%)" fill-opacity="0.5"/><rect x="1103" y="677" width="10" height="14" rx="2" fill="hsl(26 12% 99%)" fill-opacity="0.5"/><rect x="1103" y="711" width="10" height="14" rx="2" fill="hsl(26 12% 99%)" fill-opacity="0.5"/><rect x="1103" y="745" width="10" height="14" rx="2" fill="hsl(26 12% 99%)" fill-opacity="0.5"/><rect x="1103" y="779" width="10" height="14" rx="2" fill="hsl(26 12% 99%)" fill-opacity="0.5"/><rect x="1125" y="473" width="10" height="14" rx="2" fill="hsl(26 12% 99%)" fill-opacity="0.5"/><rect x="1125" y="507" width="10" height="14" rx="2" fill="hsl(26 12% 99%)" fill-opacity="0.5"/><rect x="1125" y="541" width="10" height="14" rx="2" fill="hsl(26 12% 99%)" fill-opacity="0.5"/><rect x="1125" y="575" width="10" height="14" rx="2" fill="hsl(26 12% 99%)" fill-opacity="0.5"/><rect x="1125" y="609" width="10" height="14" rx="2" fill="hsl(26 12% 99%)" fill-opacity="0.5"/><rect x="1125" y="643" width="10" height="14" rx="2" fill="hsl(26 12% 99%)" fill-opacity="0.5"/><rect x="1125" y="677" width="10" height="14" rx="2" fill="hsl(26 12% 99%)" fill-opacity="0.5"/><rect x="1125" y="711" width="10" height="14" rx="2" fill="hsl(26 12% 99%)" fill-opacity="0.5"/><rect x="1125" y="745" width="10" height="14" rx="2" fill="hsl(26 12% 99%)" fill-opacity="0.5"/><rect x="1125" y="779" width="10" height="14" rx="2" fill="hsl(26 12% 99%)" fill-opacity="0.5"/><rect x="1180" y="710" width="72" height="128" rx="3" fill="hsl(26 22% 34%)" fill-opacity="0.48"/><rect x="1263" y="561" width="69" height="277" rx="3" fill="hsl(26 22% 34%)" fill-opacity="0.34"/><rect x="1275" y="581" width="10" height="14" rx="2" fill="hsl(26 12% 99%)" fill-opacity="0.5"/><rect x="1275" y="615" width="10" height="14" rx="2" fill="hsl(26 12% 99%)" fill-opacity="0.5"/><rect x="1275" y="649" width="10" height="14" rx="2" fill="hsl(26 12% 99%)" fill-opacity="0.5"/><rect x="1275" y="683" width="10" height="14" rx="2" fill="hsl(26 12% 99%)" fill-opacity="0.5"/><rect x="1275" y="717" width="10" height="14" rx="2" fill="hsl(26 12% 99%)" fill-opacity="0.5"/><rect x="1275" y="751" width="10" height="14" rx="2" fill="hsl(26 12% 99%)" fill-opacity="0.5"/><rect x="1275" y="785" width="10" height="14" rx="2" fill="hsl(26 12% 99%)" fill-opacity="0.5"/><rect x="1297" y="581" width="10" height="14" rx="2" fill="hsl(26 12% 99%)" fill-opacity="0.5"/><rect x="1297" y="615" width="10" height="14" rx="2" fill="hsl(26 12% 99%)" fill-opacity="0.5"/><rect x="1297" y="649" width="10" height="14" rx="2" fill="hsl(26 12% 99%)" fill-opacity="0.5"/><rect x="1297" y="683" width="10" height="14" rx="2" fill="hsl(26 12% 99%)" fill-opacity="0.5"/><rect x="1297" y="717" width="10" height="14" rx="2" fill="hsl(26 12% 99%)" fill-opacity="0.5"/><rect x="1297" y="751" width="10" height="14" rx="2" fill="hsl(26 12% 99%)" fill-opacity="0.5"/><rect x="1297" y="785" width="10" height="14" rx="2" fill="hsl(26 12% 99%)" fill-opacity="0.5"/><rect x="0" y="838" width="1600" height="162" rx="0" fill="hsl(26 22% 34%)" fill-opacity="0.12"/><path d="M0 838h1600" stroke="hsl(26 22% 34%)" stroke-opacity="0.32" stroke-width="3"/><rect x="138" y="860" width="41" height="6" rx="3" fill="hsl(26 22% 34%)" fill-opacity="0.2"/><rect x="138" y="886" width="40" height="6" rx="3" fill="hsl(26 22% 34%)" fill-opacity="0.15000000000000002"/><rect x="320" y="860" width="54" height="6" rx="3" fill="hsl(26 22% 34%)" fill-opacity="0.2"/><rect x="327" y="902" width="41" height="6" rx="3" fill="hsl(26 22% 34%)" fill-opacity="0.15000000000000002"/><rect x="548" y="860" width="73" height="6" rx="3" fill="hsl(26 22% 34%)" fill-opacity="0.2"/><rect x="548" y="900" width="73" height="6" rx="3" fill="hsl(26 22% 34%)" fill-opacity="0.15000000000000002"/><rect x="978" y="860" width="50" height="6" rx="3" fill="hsl(26 22% 34%)" fill-opacity="0.2"/><rect x="979" y="904" width="49" height="6" rx="3" fill="hsl(26 22% 34%)" fill-opacity="0.15000000000000002"/><rect x="973" y="948" width="61" height="6" rx="3" fill="hsl(26 22% 34%)" fill-opacity="0.1"/><rect x="1270" y="860" width="56" height="6" rx="3" fill="hsl(26 22% 34%)" fill-opacity="0.2"/><rect x="1273" y="896" width="51" height="6" rx="3" fill="hsl(26 22% 34%)" fill-opacity="0.15000000000000002"/><rect x="96" y="92" width="208" height="54" rx="10" fill="none" stroke="hsl(26 22% 34%)" stroke-opacity="0.3" stroke-width="2"/><path d="M120 124l14-14M124 110h10v10" fill="none" stroke="hsl(26 22% 34%)" stroke-width="3" stroke-opacity="0.5" stroke-linecap="round"/><text x="148" y="128" fill="hsl(26 22% 34%)" fill-opacity="0.62" font-family="ui-monospace, SFMono-Regular, Menlo, monospace" font-size="22" letter-spacing="2.4">SHENZHEN</text>
  <rect x="28" y="28" width="1544" height="944" fill="none" stroke="hsl(26 22% 58%)" stroke-width="2" rx="18"/>
  <text x="96" y="916" fill="hsl(26 22% 34%)" fill-opacity="0.55" font-family="ui-monospace, SFMono-Regular, Menlo, monospace" font-size="22" letter-spacing="3.5">EDITORIAL CONCEPT</text>
</svg>
